<svg width="1375" height="464" viewBox="0 0 1375 464" fill="none" xmlns="http://www.w3.org/2000/svg">
<path d="M372.471 126.907L238.736 369.6C235.974 374.611 228.881 374.64 226.078 369.654L89.6911 126.93C86.6378 121.496 91.2163 114.914 97.2838 116.015L231.162 140.3C232.016 140.455 232.89 140.454 233.745 140.296L364.823 116.05C370.87 114.931 375.47 121.462 372.471 126.907Z" fill="url(#paint0_linear)"/>
<path d="M294.936 84.1613L195.968 103.842C194.341 104.165 193.137 105.564 193.038 107.243L186.951 211.59C186.807 214.048 189.031 215.955 191.395 215.402L218.949 208.949C221.527 208.345 223.857 210.649 223.327 213.281L215.141 253.963C214.59 256.701 217.123 259.042 219.757 258.23L236.776 252.982C239.415 252.17 241.95 254.517 241.391 257.258L228.382 321.16C227.568 325.157 232.807 327.337 234.992 323.91L236.451 321.621L317.096 158.291C318.446 155.556 316.118 152.438 313.158 153.017L284.796 158.573C282.13 159.094 279.863 156.575 280.615 153.929L299.126 88.8028C299.879 86.152 297.604 83.6308 294.936 84.1613Z" fill="url(#paint1_linear)"/>
<rect x="908" y="182" width="12" height="100" fill="url(#paint2_linear)"/>
<rect x="864" y="238" width="12" height="100" transform="rotate(-90 864 238)" fill="url(#paint3_linear)"/>
<rect x="435" y="182" width="12" height="100" fill="url(#paint4_linear)"/>
<rect x="391" y="238" width="12" height="100" transform="rotate(-90 391 238)" fill="url(#paint5_linear)"/>
<path d="M1206.6 285.9C1216.75 284.85 1224.45 276.1 1224.1 265.6C1223.75 255.1 1215 246.7 1204.5 246.7H1203.8C1192.95 247.05 1184.55 256.15 1184.9 267C1185.25 272.25 1187.35 276.8 1190.5 279.95C1178.6 303.4 1160.4 320.55 1133.1 334.9C1114.55 344.7 1095.3 348.2 1076.05 345.75C1060.3 343.65 1048.05 336.65 1040.35 325.1C1029.15 307.95 1028.1 289.4 1037.55 270.85C1044.2 257.55 1054.7 247.75 1061.35 242.85C1059.95 238.3 1057.85 230.6 1056.8 225C1006.05 261.75 1011.3 311.45 1026.7 334.9C1038.25 352.4 1061.7 363.25 1087.6 363.25C1094.6 363.25 1101.6 362.55 1108.6 360.8C1153.4 352.05 1187.35 325.45 1206.6 285.9V285.9Z" fill="#764ABC"/>
<path d="M1268.2 242.5C1241.6 211.35 1202.4 194.2 1157.6 194.2H1152C1148.85 187.9 1142.2 183.7 1134.85 183.7H1134.15C1123.3 184.05 1114.9 193.15 1115.25 204C1115.6 214.5 1124.35 222.9 1134.85 222.9H1135.55C1143.25 222.55 1149.9 217.65 1152.7 211H1159C1185.6 211 1210.8 218.7 1233.55 233.75C1251.05 245.3 1263.65 260.35 1270.65 278.55C1276.6 293.25 1276.25 307.6 1269.95 319.85C1260.15 338.4 1243.7 348.55 1222 348.55C1208 348.55 1194.7 344.35 1187.7 341.2C1183.85 344.7 1176.85 350.3 1171.95 353.8C1187 360.8 1202.4 364.65 1217.1 364.65C1250.7 364.65 1275.55 346.1 1285 327.55C1295.15 307.25 1294.45 272.25 1268.2 242.5Z" fill="#764ABC"/>
<path d="M1090.4 291.85C1090.75 302.35 1099.5 310.75 1110 310.75H1110.7C1121.55 310.4 1129.95 301.3 1129.6 290.45C1129.25 279.95 1120.5 271.55 1110 271.55H1109.3C1108.6 271.55 1107.55 271.55 1106.85 271.9C1092.5 248.1 1086.55 222.2 1088.65 194.2C1090.05 173.2 1097.05 155 1109.3 139.95C1119.45 127 1139.05 120.7 1152.35 120.35C1189.45 119.65 1205.2 165.85 1206.25 184.4C1210.8 185.45 1218.5 187.9 1223.75 189.65C1219.55 132.95 1184.55 103.55 1150.95 103.55C1119.45 103.55 1090.4 126.3 1078.85 159.9C1062.75 204.7 1073.25 247.75 1092.85 281.7C1091.1 284.15 1090.05 288 1090.4 291.85V291.85Z" fill="#764ABC"/>
<g clip-path="url(#clip0)">
<path d="M676 259.049C691.162 259.049 703.452 246.715 703.452 231.5C703.452 216.285 691.162 203.951 676 203.951C660.839 203.951 648.548 216.285 648.548 231.5C648.548 246.715 660.839 259.049 676 259.049Z" fill="#61DAFB"/>
<path d="M676 287.942C757.354 287.942 823.304 262.672 823.304 231.5C823.304 200.328 757.354 175.058 676 175.058C594.646 175.058 528.696 200.328 528.696 231.5C528.696 262.672 594.646 287.942 676 287.942Z" stroke="#61DAFB" stroke-width="12"/>
<path d="M627.292 259.721C667.969 330.424 722.751 375.106 749.652 359.52C776.553 343.934 765.385 273.982 724.708 203.279C684.031 132.576 629.249 87.8944 602.348 103.48C575.447 119.066 586.615 189.018 627.292 259.721Z" stroke="#61DAFB" stroke-width="12"/>
<path d="M627.292 203.279C586.615 273.982 575.447 343.934 602.348 359.52C629.249 375.106 684.031 330.424 724.708 259.721C765.385 189.018 776.553 119.066 749.652 103.48C722.751 87.8944 667.969 132.576 627.292 203.279Z" stroke="#61DAFB" stroke-width="12"/>
</g>
<defs>
<linearGradient id="paint0_linear" x1="86.3611" y1="107.342" x2="256.001" y2="334.354" gradientUnits="userSpaceOnUse">
<stop stop-color="#41D1FF"/>
<stop offset="1" stop-color="#BD34FE"/>
</linearGradient>
<linearGradient id="paint1_linear" x1="223.478" y1="89.5045" x2="254.469" y2="298.985" gradientUnits="userSpaceOnUse">
<stop stop-color="#FFEA83"/>
<stop offset="0.0833333" stop-color="#FFDD35"/>
<stop offset="1" stop-color="#FFA800"/>
</linearGradient>
<linearGradient id="paint2_linear" x1="914" y1="182" x2="914" y2="282" gradientUnits="userSpaceOnUse">
<stop stop-color="#61DAFB"/>
<stop offset="1" stop-color="#764ABC"/>
</linearGradient>
<linearGradient id="paint3_linear" x1="870" y1="238" x2="870" y2="338" gradientUnits="userSpaceOnUse">
<stop stop-color="#61DAFB"/>
<stop offset="1" stop-color="#764ABC"/>
</linearGradient>
<linearGradient id="paint4_linear" x1="441" y1="182" x2="441" y2="282" gradientUnits="userSpaceOnUse">
<stop stop-color="#8877FE"/>
<stop offset="1" stop-color="#61DAFB"/>
</linearGradient>
<linearGradient id="paint5_linear" x1="397" y1="238" x2="397" y2="338" gradientUnits="userSpaceOnUse">
<stop stop-color="#8877FE"/>
<stop offset="1" stop-color="#61DAFB"/>
</linearGradient>
<clipPath id="clip0">
<rect width="308" height="275" fill="white" transform="translate(522 94)"/>
</clipPath>
</defs>
</svg>
